<?xml version="1.0" ?><!DOCTYPE svg  PUBLIC '-//W3C//DTD SVG 1.1//EN'  'http://www.w3.org/Graphics/SVG/1.1/DTD/svg11.dtd'><svg enable-background="new 0 0 512 512" id="Layer_1" version="1.1" viewBox="0 0 512 512" xml:space="preserve" xmlns="http://www.w3.org/2000/svg" xmlns:xlink="http://www.w3.org/1999/xlink"><g><path d="M256.8,507.8C119,507.8,7.9,395.3,8.6,255.1C9.2,117.4,120.4,4.7,260,6.2   c136.4,1.5,246.9,113.7,245.5,253.4C504.2,396.7,394.2,507.6,256.8,507.8z M256.8,488.2c124.3,0.4,227.7-100.8,229.1-228.5   c1.4-130.4-102.8-232.8-226.8-233.9c-125.8-1.1-230.4,101-231,229.1C27.5,384.5,129.6,488.2,256.8,488.2z" fill="#F67C11"/><path d="M264.9,258.9c0-22.2,0.1-44.3-0.1-66.5c0-4.9,1.9-7.2,6.3-8.7c41.8-14.3,86.1,7.7,99.7,49.7   c1.3,3.9,1.8,8.1,2.5,12.2c0.4,2.4,0.8,3.7,4.1,2.7c25.2-7.6,49,5.8,55.8,31.1c6.8,25.3-12.5,52.6-38.8,53.5   c-19.5,0.7-39,0.2-58.5,0.2c-20.5,0-41,0-61.5,0c-9,0-9.5-0.5-9.5-9.8C264.9,301.9,264.9,280.4,264.9,258.9z" fill="#F67C11"/><path d="M260.9,248.5c2.3,25.8,2.4,51.6,0.1,77.3c-0.3,3.5-0.3,7.1-5,7.1c-4.5,0-4.8-3.5-5.1-7.1   c-3.1-43.2-0.2-86.5,0.1-129.7c0-3.6,1.1-6.5,5.2-6.3c3.9,0.1,4.7,3,4.6,6.4C260.9,213.6,260.9,231,260.9,248.5z" fill="#F67F18"/><path d="M245.9,260.5c1.8,21.6,1.5,43.3,0.1,64.9c-0.1,1.6-0.3,3.3-0.7,4.9c-0.5,1.8-1.9,2.6-3.8,2.7   c-2,0.1-3.5-0.7-4.5-2.6c-0.9-1.7-0.6-3.6-0.7-5.4c-2.4-34.8-0.2-69.6-0.1-104.4c0-5.3,0.2-10.7,0.2-16c0-3.5,0.8-6.7,4.9-6.7   c3.8,0.1,4.6,3.2,4.6,6.5C245.8,223.2,245.9,241.9,245.9,260.5z" fill="#F67F18"/><path d="M230.3,257.3c2.5,22.6,2.3,45.3,0.2,67.9c-0.1,1.2-0.2,2.3-0.3,3.5c-0.2,2.6-1.3,4.5-4.3,4.4   c-3-0.1-3.8-2-4-4.7c-1.1-19.6-2.4-39.2-1.5-58.9c0.7-16.8,1.1-33.6,1.5-50.4c0.1-3.1,0.2-6,4.1-6.1c4-0.1,4.3,3,4.3,5.9   C230.4,231.6,230.3,244.5,230.3,257.3z" fill="#F67F18"/><path d="M207.2,265.4c0-15.8,0-31.6,0-47.4c0-1.5,0.2-3,0.4-4.5c0.3-2.1,1.7-3.3,3.8-3.2c2.2,0.1,3.7,1.3,3.8,3.8   c0.1,4.5,0.3,9,0.5,13.5c0.7,21.1,1.7,42.3,1.8,63.4c0,12.8-1.5,25.6-2.3,38.4c-0.2,2.4-1.5,3.6-3.8,3.7c-2.2,0.1-3.5-1.2-3.7-3.3   c-0.3-3-0.4-6-0.6-9C205.3,302.3,204.8,283.9,207.2,265.4z" fill="#F67F18"/><path d="M191.4,261.5c0.5-15.8,1-31.6,1.5-47.4c0.1-2.6,0.1-5.5,3.4-5.7c3.6-0.2,3.9,2.9,4,5.7   c0.6,22.1,1,44.2,2,66.4c0.7,15.5-1.3,30.9-1.8,46.3c0,0.5-0.1,1-0.2,1.5c-0.3,2.5-0.9,4.8-4,4.6c-2.9-0.1-3.2-2.3-3.4-4.6   c-0.8-12.4-2.1-24.9-2.1-37.4c0-9.8,0-19.6,0-29.4C191,261.5,191.2,261.5,191.4,261.5z" fill="#F67F18"/><path d="M178.3,263.5c0-15,0-29.9,0-44.9c0-1.6,0.1-3.3,0.6-4.9c0.4-1.5,1.5-2.7,3.3-2.5c1.5,0.2,2.4,1.2,2.7,2.6   c0.3,2,0.5,4,0.6,5.9c0.8,23.9,2,47.9,2.2,71.8c0.1,11.8-1.3,23.6-2.2,35.3c-0.2,2.4,0.3,6-3.6,6c-3.8-0.1-3.4-3.5-3.5-6.1   C176.7,305.7,175.5,284.6,178.3,263.5z" fill="#F67F18"/><path d="M173.2,286c0.3,14-1.8,27.9-2.8,41.8c-0.1,2,0.4,5.3-3.2,5.1c-3.2-0.2-3-3-3.2-5.3   c-3.2-29.4-1.5-58.8-0.5-88.3c0.2-5.7,0.4-11.3,0.6-17c0.1-2.2,0.3-4.6,3.3-4.6c3,0,2.6,2.5,2.7,4.4   C171.3,243.5,172.2,264.7,173.2,286z" fill="#F67F18"/><path d="M158.8,292.6c-0.9,11.1-2,24-3,37c-0.2,1.9-0.8,3.4-2.9,3.3c-2.4-0.1-2.8-2-2.9-4   c-0.9-17.1-3.1-34.1-1.9-51.3c0.9-13.4,1.3-26.9,1.9-40.4c0.1-2.3-0.6-5.7,3.1-5.7c3.3,0,2.7,3.2,2.8,5.4   C156.8,255,157.8,272.9,158.8,292.6z" fill="#F67F18"/><path d="M144.4,292.6c-1,12-2,24.1-3.1,36.2c-0.2,1.8-0.3,4-2.9,3.8c-2.1-0.2-2.2-2.1-2.4-3.8   c-2.6-23.5-2.9-47.1,0-70.6c0.2-1.8,0.5-3.7,2.4-3.8c2.4-0.2,2.7,2.1,2.9,3.9C142.4,269.7,143.3,281.1,144.4,292.6z" fill="#F67F18"/><path d="M130.2,292.6c-1.1,12-2.2,24.1-3.4,36.2c-0.1,1.5-0.5,3.3-2.4,3.2c-2.2-0.2-2.1-2.2-2.3-3.9   c-2.2-21.6-3.6-43.1-0.6-64.7c0.4-2.6,0.4-5.3,0.6-8c0.1-1.5,0.3-3.3,2.2-3.4c1.9-0.1,2.3,1.5,2.5,3.1   C127.9,267.6,129,280,130.2,292.6z" fill="#F67F18"/><path d="M116.1,292.5c-1.2,11.6-2.5,23.4-3.7,35.1c-0.1,1.3-0.2,3-2.1,2.8c-1.7-0.2-1.7-1.8-1.8-3.1   c-3.3-23.7-3-47.4,0-71.1c0.2-1.3,0.2-3,1.9-3c1.9-0.1,1.8,1.7,1.9,2.9C113.6,268.2,114.8,280.3,116.1,292.5z" fill="#F67F18"/><path d="M91.5,292.6c1.1-10.3,2.1-20,3.2-29.8c0.1-1.2,0-3.1,1.8-3c1.8,0.1,1.4,1.9,1.7,3.1c4,19.6,4.1,39.2,0,58.8   c-0.3,1.2,0.1,3.1-1.7,3.1c-1.7,0-1.6-1.9-1.8-3.1C93.6,311.9,92.5,302,91.5,292.6z" fill="#F67F18"/><path d="M79.2,292.6c0.9-6.3,1.8-12.6,2.7-18.8c0.1-0.8,0.3-1.8,1.3-1.9c1.3-0.1,1.6,0.9,1.8,1.9   c3,12.5,3,25,0,37.4c-0.2,0.8-0.6,1.7-1.5,1.7c-1.3,0-1.4-1.1-1.6-2.1C81,304.7,80.1,298.6,79.2,292.6z" fill="#F67F18"/></g></svg>